<svg xmlns="http://www.w3.org/2000/svg" viewBox="0 0 64 64"><defs><style>.cls-1{opacity:0.2;}</style></defs><title>day night</title><g id="day_night" data-name="day night"><path d="M45.64,23.68h0C45.57,23.63,45.61,23.65,45.64,23.68ZM45,23.26h0S45,23.25,45,23.26Zm.61.42h0C45.57,23.63,45.61,23.65,45.64,23.68ZM45,23.26h0S45,23.25,45,23.26Zm3.42-.75a1,1,0,0,0-.87-.51H47a1,1,0,0,1-.81-1.58A1.11,1.11,0,0,0,45.83,19a18.69,18.69,0,0,0-4.92-3.77c-.86-.48-2.59.57-3.27,1.81a3.92,3.92,0,0,0-3.28,0,3.78,3.78,0,0,0-2.64-1.91,3.82,3.82,0,0,0-.1-1.47,1,1,0,0,0-1-.6A19,19,0,1,0,49.22,40c.29-.56.52-1,.27-1.5A1,1,0,0,0,48.8,38a1,1,0,0,1,.2-2h.75a1,1,0,0,0,1-.82A18.74,18.74,0,0,0,48.45,22.51ZM48.82,34a3,3,0,0,0-1.54,5.44A17.21,17.21,0,0,1,37,48.24a15,15,0,0,1-3.51.69c.11,1.34.14,1.33-.1,0a16.18,16.18,0,0,1-4.25-.2C18.67,47,12.72,36.15,15.72,27.12a17,17,0,0,1,13.94-12c-.13.43-.71.91-.22,1.6a1,1,0,0,0,1.09.38,1.77,1.77,0,0,1,2.27,1.63,1,1,0,0,0,1.8.59,1.8,1.8,0,0,1,2.8,0,1,1,0,0,0,1.8-.59,1.77,1.77,0,0,1,1.11-1.6,16.43,16.43,0,0,1,3.82,2.93A3,3,0,0,0,47,24C49.44,28.41,49.09,33.88,48.82,34ZM45,23.26h0S45,23.25,45,23.26Zm.61.42h0C45.57,23.63,45.61,23.65,45.64,23.68Z"/><path class="cls-1" d="M43.27,44.69A17.23,17.23,0,0,1,37,48.24c0-10.08,0-9.43,0-9.85Z"/><path class="cls-1" d="M30.61,32c-.43,0,.12,0-6.61,0V30a2,2,0,0,1,2-2C26.81,28,25.86,27.28,30.61,32Z"/><path class="cls-1" d="M29.14,48.74A17,17,0,0,1,15,31h4.53L22,33.41V38.5A3.5,3.5,0,0,0,25.5,42,1.5,1.5,0,0,1,27,43.5,7.47,7.47,0,0,0,29.14,48.74Z"/><path d="M50.48,27.58a19.07,19.07,0,0,0-1.57-4.23c-.37-.7-.6-1.35-1.33-1.35a3.86,3.86,0,0,1-.78,0,1,1,0,0,1-.8-1,1,1,0,0,0-1-1c-2.14,0-3.83-.22-5.54,1.47A5,5,0,0,0,43,30c7.44,0,7.1.12,7.51-.35S50.75,28.72,50.48,27.58ZM43,28a3,3,0,0,1-2.13-5.12c1-1,2-.88,3.3-.88A3,3,0,0,0,47,24a16.45,16.45,0,0,1,1.53,4Z"/><path class="cls-1" d="M48.52,28H43a3,3,0,0,1,0-6c1.41,0,1.11-.08,1.28.25a2.94,2.94,0,0,0,2.09,1.68c.69.17.56-.11.76.34A16.41,16.41,0,0,1,48.52,28Z"/><path d="M37,38.39A7,7,0,0,0,30,32H23a1,1,0,0,0-1,1v5.5A3.5,3.5,0,0,0,25.5,42,1.5,1.5,0,0,1,27,43.5a7.47,7.47,0,0,0,6.57,7.43,15.61,15.61,0,0,0,2.66-.41,1,1,0,0,0,.77-1C37,38.11,37,38.82,37,38.39ZM33.6,48.92A5.47,5.47,0,0,1,29,43.5,3.48,3.48,0,0,0,25.5,40,1.5,1.5,0,0,1,24,38.5V34h6a5,5,0,0,1,5,5v9.74C34.56,48.82,34.09,48.88,33.6,48.92Z"/><path d="M28.24,19.75C26,17.54,23.71,18,19.56,18a1,1,0,0,0-.69.28,18.89,18.89,0,0,0-5.75,11.61,1,1,0,0,0,.24.78c.44.49.63.33,6.2.33,2.87,2.83,3,3.25,3.82,2.92S24,33,24,30a2,2,0,0,1,2-2C29.89,28,31.52,23.06,28.24,19.75ZM26,26a4,4,0,0,0-4,4v.6c-2-2-.76-1.6-6.73-1.6A16.9,16.9,0,0,1,20,20c3.55,0,5.31-.35,6.86,1.16C28.83,23.21,28.07,26,26,26Z"/><path class="cls-1" d="M27.09,25.67,21.42,20H24C27.55,20,29.13,24.31,27.09,25.67Z"/><path d="M50.29,51.71l-38-38a1,1,0,0,1,1.42-1.42l38,38A1,1,0,0,1,50.29,51.71Z"/><path d="M36,8a4,4,0,1,0,4,4A4,4,0,0,0,36,8Zm0,6a2,2,0,1,1,2-2A2,2,0,0,1,36,14Z"/><path d="M43.42,11.05a1.74,1.74,0,0,1-.86-2.65,1,1,0,0,0-1.09-1.54A1.78,1.78,0,0,1,39.2,5.23a1,1,0,0,0-1.8-.59,1.8,1.8,0,0,1-2.8,0,1,1,0,0,0-1.8.59,1.77,1.77,0,0,1-2.27,1.63,1,1,0,0,0-1.09.38c-.61.85.32,1.13.32,2.16a1.75,1.75,0,0,1-1.18,1.65,1,1,0,0,0-.68.95c0,.88.76.89,1.19,1.23a1.74,1.74,0,0,1,.35,2.37,1,1,0,0,0,1.09,1.54,1.77,1.77,0,0,1,2.27,1.63,1,1,0,0,0,1.8.59,1.8,1.8,0,0,1,2.8,0,1,1,0,0,0,1.11.35c1-.33.36-1.3,1.17-2.11a1.73,1.73,0,0,1,1.79-.46,1,1,0,0,0,1.1-1.54A1.73,1.73,0,0,1,43.42,13,1,1,0,0,0,43.42,11.05Zm-5.78,6a3.84,3.84,0,0,0-3.28,0,3.78,3.78,0,0,0-2.64-1.91,3.83,3.83,0,0,0-1-3.13,3.74,3.74,0,0,0,1-3.11A3.78,3.78,0,0,0,34.36,7a3.92,3.92,0,0,0,3.28,0,3.78,3.78,0,0,0,2.64,1.91,3.75,3.75,0,0,0,1,3.12,3.85,3.85,0,0,0-1,3.12A3.76,3.76,0,0,0,37.64,17Z"/><path class="cls-1" d="M41.29,12a3.74,3.74,0,0,1-1-3.12A3.78,3.78,0,0,1,37.64,7a3.92,3.92,0,0,1-3.28,0,3.78,3.78,0,0,1-2.64,1.91,3.73,3.73,0,0,1-1,3.11,3.83,3.83,0,0,1,1,3.13A3.78,3.78,0,0,1,34.36,17a3.84,3.84,0,0,1,3.28,0,3.83,3.83,0,0,1,2.64-1.92A3.75,3.75,0,0,1,41.29,12ZM36,16a4,4,0,1,1,4-4A4,4,0,0,1,36,16Z"/><path d="M22.57,49.66c-.89-.62-1.19.46-2.73.46a3,3,0,0,1-2.48-4.57A1,1,0,0,0,16.29,44a5.56,5.56,0,0,0,1.27,11C21.67,55,23.91,50.57,22.57,49.66Zm-5,3.34a3.57,3.57,0,0,1-2.68-5.91,5,5,0,0,0,5,5A3.56,3.56,0,0,1,17.56,53Z"/><path class="cls-1" d="M19.91,52.12a3.56,3.56,0,0,1-5-5A5,5,0,0,0,19.91,52.12Z"/><path d="M56,34a4.44,4.44,0,0,0-1-2A3.51,3.51,0,0,0,49,34a3,3,0,0,0-2.19,5.08A3,3,0,0,0,49,40c7.3,0,8,.28,9.11-.87A3,3,0,0,0,56,34Zm.69,3.71c-.39.41-.24.29-7.69.29a1,1,0,0,1,0-2h1a1,1,0,0,0,1-1v-.5a1.5,1.5,0,0,1,3,0V35a1,1,0,0,0,1,1h1A1,1,0,0,1,56.69,37.71Z"/><path class="cls-1" d="M56,38c-7.51,0-7.09,0-7.2,0a1,1,0,0,1-.49-1.69c.34-.35.61-.29,1.69-.29a1,1,0,0,0,1-1v-.5a1.5,1.5,0,0,1,3,0V35a1,1,0,0,0,1,1h1A1,1,0,0,1,56,38Z"/><path d="M54,18a4.44,4.44,0,0,0-1-2A3.51,3.51,0,0,0,47,18a3,3,0,0,0-1.4,5.67h0a4,4,0,0,0,.73.25c.4.1,0,.07,7.63.07a3,3,0,0,0,0-6Zm.69,3.71c-.39.41-.24.29-7.69.29a1,1,0,0,1,0-2h1a1,1,0,0,0,1-1v-.5a1.5,1.5,0,0,1,3,0V19a1,1,0,0,0,1,1h1A1,1,0,0,1,54.69,21.71Z"/><path class="cls-1" d="M54,22c-7.51,0-7.09,0-7.2,0a1,1,0,0,1-.49-1.69c.34-.35.61-.29,1.69-.29a1,1,0,0,0,1-1v-.5a1.5,1.5,0,0,1,3,0V19a1,1,0,0,0,1,1h1A1,1,0,0,1,54,22Z"/><path d="M7,31a1,1,0,0,1-2,0A1,1,0,0,1,7,31Z"/><path d="M13,39a1,1,0,0,1-2,0A1,1,0,0,1,13,39Z"/><path d="M13,20a1,1,0,0,1-2,0A1,1,0,0,1,13,20Z"/><path d="M27,55a1,1,0,0,1-2,0A1,1,0,0,1,27,55Z"/><path d="M45,50a1,1,0,0,1-2,0A1,1,0,0,1,45,50Z"/><path d="M41,57a1,1,0,0,1-2,0A1,1,0,0,1,41,57Z"/></g></svg>